<?xml version="1.0" encoding="utf-8"?>
<svg xmlns="http://www.w3.org/2000/svg" viewBox="0 0 30 30" width="24" height="24">
  <path d="M4 3C2.895 3 2 3.895 2 5L2 8L2 23C2 24.105 2.895 25 4 25L6 25L6 24.5C6 23.672 6.672 23 7.5 23C8.328 23 9 23.672 9 24.5L9 25L21 25L21 24.5C21 23.672 21.672 23 22.5 23C23.328 23 24 23.672 24 24.5L24 25L26 25C27.105 25 28 24.105 28 23L28 7C28 5.895 27.105 5 26 5L11.199219 5L10.582031 3.9707031C10.221031 3.3687031 9.5701875 3 8.8671875 3L4 3 z M 10 9C10.954 9 11.25 9.6777344 11.25 9.6777344C12.103 9.6777344 12.5 10.611031 12.5 11.707031C12.5 12.254031 12.279297 12.707031 12.279297 12.707031C12.367297 12.762031 12.514516 12.937047 12.478516 13.248047C12.410516 13.827047 12.17825 13.974328 12.03125 13.986328C11.97525 14.526328 11.439953 15.218359 11.251953 15.318359L11.251953 16.222656C11.625953 17.439656 13.451953 16.843 14.001953 19L6 19C6.55 16.843 8.376 17.439656 8.75 16.222656L8.75 15.318359C8.562 15.218359 8.0267031 14.526328 7.9707031 13.986328C7.8237031 13.974328 7.5914375 13.827047 7.5234375 13.248047C7.4864375 12.937047 7.6317031 12.762031 7.7207031 12.707031C7.7207031 12.707031 7.5019531 12.206031 7.5019531 11.707031C7.5009531 10.227031 8.233 9 10 9 z M 17 12L23 12C23.552 12 24 12.448 24 13C24 13.552 23.552 14 23 14L17 14C16.448 14 16 13.552 16 13C16 12.448 16.448 12 17 12 z M 17 16L23 16C23.552 16 24 16.448 24 17C24 17.552 23.552 18 23 18L17 18C16.448 18 16 17.552 16 17C16 16.448 16.448 16 17 16 z" fill="#333333" />
</svg>