<?xml version="1.0" encoding="utf-8"?>
<svg xmlns="http://www.w3.org/2000/svg" viewBox="0 0 30 30" width="24" height="24">
  <path d="M26 0.5C25.172 0.5 24.5 1.172 24.5 2C24.5 2.828 25.172 3.5 26 3.5C26.828 3.5 27.5 2.828 27.5 2C27.5 1.172 26.828 0.5 26 0.5 z M 15 3.0019531C10.758 3.0019531 9 5.7229531 9 9.0019531C9 10.105953 9.5273437 11.214844 9.5273438 11.214844C9.3153438 11.336844 8.9666875 11.724109 9.0546875 12.412109C9.2186875 13.695109 9.7749062 14.021828 10.128906 14.048828C10.263906 15.245828 11.55 16.777 12 17L12 19C11 22 3 20 3 27L27 27C27 20 19 22 18 19L18 17C18.45 16.777 19.736094 15.245828 19.871094 14.048828C20.225094 14.021828 20.781312 13.695109 20.945312 12.412109C21.033313 11.723109 20.684656 11.336844 20.472656 11.214844C20.472656 11.214844 21 10.212953 21 9.0019531C21 6.5739531 20.047 4.5019531 18 4.5019531C18 4.5019531 17.289 3.0019531 15 3.0019531 z M 25 5 A 1.0001 1.0001 0 0 0 24.785156 6.9785156L24.138672 10.205078 A 1.0001 1.0001 0 0 0 24.138672 10.208984C23.959813 11.115011 24.68367 12 25.609375 12L26 12 A 1.0001 1.0001 0 0 0 26.214844 10.021484L26.861328 6.7949219C27.043278 5.8881079 26.31633 5 25.390625 5L25 5 z" fill="#333333" />
</svg>